<?xml version="1.0" encoding="UTF-8"?>
<svg width="230px" height="214px" viewBox="0 0 230 214" version="1.1" xmlns="http://www.w3.org/2000/svg" xmlns:xlink="http://www.w3.org/1999/xlink">
    <!-- Generator: sketchtool 51.1 (57501) - http://www.bohemiancoding.com/sketch -->
    <title>861C44DC-3932-4446-AD28-2800FC04EFEA</title>
    <desc>Created with sketchtool.</desc>
    <defs>
        <polygon id="path-1" points="0.98655 0.8234 32.241 0.8234 32.241 45.5532065 0.98655 45.5532065"></polygon>
        <polygon id="path-3" points="0 222 229 222 229 0 0 0"></polygon>
    </defs>
    <g id="Page-1" stroke="none" stroke-width="1" fill="none" fill-rule="evenodd">
        <g id="Splash-screen" transform="translate(-65.000000, -209.000000)">
            <g id="logo" transform="translate(65.000000, 209.000000)">
                <path d="M5.02153531,164.900334 L13.0908574,164.900334 C15.6008864,164.900334 17.5436104,164.171906 18.9175521,162.71505 C20.2929712,161.258194 20.979942,159.07291 20.979942,156.157692 L20.979942,155.420234 C20.979942,152.506522 20.2929712,150.321237 18.9175521,148.864381 C17.5436104,147.407525 15.6008864,146.679097 13.0908574,146.679097 L5.02153531,146.679097 L5.02153531,164.900334 Z M0,185.151839 L0,143.786455 C0,143.294314 0.189101654,142.87291 0.567304961,142.523746 C0.945508268,142.174582 1.43451332,142 2.03284278,142 L13.3287119,142 C17.1550656,142 20.2220581,143.067057 22.5341213,145.201171 C24.8447071,147.335284 26,150.700502 26,155.296823 L26,155.850669 C26,160.44699 24.8240241,163.822742 22.4735496,165.977926 C20.1230752,168.131605 16.9940338,169.209197 13.0908574,169.209197 L5.02153531,169.209197 L5.02153531,185.151839 C5.02153531,185.728261 4.77186204,186.179766 4.27399284,186.506355 C3.77464629,186.835953 3.18813569,187 2.51150634,187 C1.83339962,187 1.24393431,186.835953 0.746065117,186.506355 C0.249673277,186.179766 0,185.728261 0,185.151839 Z" id="Fill-1" fill="#FEFEFE"></path>
                <path d="M37.0678977,173.69033 C37.0678977,179.470393 39.7009978,182.360425 44.9701801,182.360425 C47.5033834,182.360425 49.462553,181.637917 50.8506709,180.191408 C52.2387889,178.747885 52.9335933,176.581854 52.9335933,173.69033 L52.9335933,155.311163 C52.9335933,152.421131 52.2387889,150.2551 50.8506709,148.808592 C49.462553,147.363576 47.5033834,146.641068 44.9701801,146.641068 C39.7009978,146.641068 37.0678977,149.5311 37.0678977,155.311163 L37.0678977,173.69033 Z M32,173.69033 L32,155.311163 C32,150.711893 33.1763964,147.34417 35.5291891,145.206502 C37.8819819,143.068834 41.0279849,142 44.9701801,142 C48.9093933,142 52.0673242,143.068834 54.4394999,145.206502 C56.8131666,147.34417 58,150.711893 58,155.311163 L58,173.69033 C58,178.2896 56.8131666,181.657323 54.4394999,183.794991 C52.0673242,185.931166 48.9093933,187 44.9701801,187 C41.0279849,187 37.8819819,185.931166 35.5291891,183.794991 C33.1763964,181.657323 32,178.2896 32,173.69033 Z" id="Fill-3" fill="#FEFEFE"></path>
                <path d="M70.0678977,182.322252 L77.9701801,182.322252 C80.5033834,182.322252 82.462553,181.593799 83.8506709,180.136894 C85.2387889,178.679989 85.9335933,176.494632 85.9335933,173.579317 L85.9335933,155.420683 C85.9335933,152.505368 85.2387889,150.321516 83.8506709,148.864611 C82.462553,147.407706 80.5033834,146.677748 77.9701801,146.677748 L70.0678977,146.677748 L70.0678977,182.322252 Z M65,185.21499 L65,143.786515 C65,143.292853 65.2117215,142.872939 65.6336736,142.523763 C66.0571166,142.174588 66.6087854,142 67.2931529,142 L77.9701801,142 C81.9093933,142 85.0673242,143.077628 87.4394999,145.231379 C89.8131666,147.386635 91,150.783571 91,155.420683 L91,173.579317 C91,178.217934 89.8131666,181.613365 87.4394999,183.768621 C85.0673242,185.923877 81.9093933,187 77.9701801,187 L67.2931529,187 C66.6087854,187 66.0571166,186.826917 65.6336736,186.477742 C65.2117215,186.128566 65,185.707147 65,185.21499 Z" id="Fill-5" fill="#FEFEFE"></path>
                <path d="M103.986965,162.689103 L111.644207,162.689103 C117.105073,162.689103 119.835506,160.008405 119.835506,154.64701 C119.835506,149.327641 117.105073,146.664954 111.644207,146.664954 L103.986965,146.664954 L103.986965,162.689103 Z M99,185.035256 L99,143.780127 C99,143.289317 99.1687264,142.881058 99.5047119,142.55235 C99.8406975,142.225143 100.266181,142.040526 100.779696,142 L111.644207,142 C115.601208,142 118.786468,142.951603 121.199989,144.854808 C123.614977,146.758013 124.821003,149.899503 124.821003,154.277776 C124.821003,161.032054 121.87196,165.02158 115.976807,166.249358 L124.762316,183.499783 C124.920772,183.787966 125,184.074647 125,184.359828 C125,185.015743 124.681621,185.617624 124.050731,186.171475 C123.416906,186.723825 122.743468,187 122.031883,187 C121.199989,187 120.44879,186.324572 119.776818,184.975218 L110.812313,166.986325 L103.986965,166.986325 L103.986965,185.035256 C103.986965,185.61012 103.73901,186.058904 103.244569,186.386111 C102.74866,186.714819 102.166187,186.876922 101.494216,186.876922 C100.820778,186.876922 100.23537,186.714819 99.7409288,186.386111 C99.2479544,186.058904 99,185.61012 99,185.035256 Z" id="Fill-7" fill="#FEFEFE"></path>
                <path d="M135.765499,128.663102 C135.765499,128.253352 135.886276,127.873731 136.127832,127.522732 C136.367896,127.174746 136.670586,127 137.032919,127 C137.353501,127 137.635316,127.123528 137.876871,127.370583 L143.90979,132.545181 L150.002351,127.370583 C150.203647,127.123528 150.485462,127 150.847795,127 C151.208637,127 151.511326,127.174746 151.752882,127.522732 C151.994437,127.873731 152.115215,128.253352 152.115215,128.663102 C152.115215,129.362087 151.812525,129.916455 151.208637,130.326205 L145.116075,135.440545 C144.673224,135.811128 144.272122,135.994913 143.90979,135.994913 C143.507197,135.994913 143.126971,135.811128 142.763147,135.440545 L136.609451,130.326205 C136.045822,129.916455 135.765499,129.362087 135.765499,128.663102 M131,181.160793 C131,180.503988 131.231118,179.865261 131.694844,179.250636 C132.155589,178.634505 132.668521,178.325686 133.23215,178.325686 C133.594483,178.325686 134.056718,178.583286 134.618856,179.09698 C135.180994,179.609167 135.765499,180.184625 136.367896,180.821846 C136.973275,181.459067 137.915639,182.034524 139.205425,182.546712 C140.490738,183.060406 141.94007,183.316499 143.548948,183.316499 C146.162815,183.316499 148.213053,182.670239 149.701153,181.376213 C151.189253,180.082187 151.933303,178.182575 151.933303,175.67587 C151.933303,173.417727 151.248896,171.578372 149.883065,170.162324 C148.514251,168.743264 146.865114,167.666165 144.934163,166.926506 C143.004703,166.186847 141.064805,165.397476 139.112978,164.553874 C137.162643,163.713284 135.503068,162.419258 134.137237,160.673302 C132.768423,158.927345 132.085508,156.678241 132.085508,153.925987 C132.085508,151.767268 132.4881,149.888746 133.291793,148.288914 C134.096978,146.692095 135.172048,145.486948 136.519986,144.677994 C137.866433,143.869039 139.265069,143.275504 140.711418,142.901909 C142.16075,142.528314 143.708493,142.341516 145.35763,142.341516 C147.85072,142.341516 150.233469,142.712098 152.507369,143.448744 C154.778288,144.188403 155.915983,145.211271 155.915983,146.518855 C155.915983,147.095819 155.713196,147.714963 155.310604,148.376287 C154.909503,149.036105 154.386133,149.366014 153.743477,149.366014 C153.580949,149.366014 152.656478,148.975848 150.967081,148.195515 C149.279176,147.415183 147.409359,147.02351 145.35763,147.02351 C142.903309,147.02351 140.923152,147.53871 139.415668,148.566098 C137.908184,149.593485 137.153696,151.215914 137.153696,153.431877 C137.153696,155.322451 137.836612,156.852987 139.205425,158.023486 C140.571257,159.193984 142.230831,160.129479 144.182658,160.826958 C146.131502,161.525943 148.072891,162.327365 150.002351,163.229719 C151.933303,164.133579 153.580949,165.582767 154.949762,167.574272 C156.315593,169.565777 157,172.10261 157,175.183266 C157,179.414837 155.795206,182.609982 153.381144,184.765688 C150.967081,186.9229 147.771692,188 143.789012,188 C140.208924,188 137.183518,187.233225 134.709812,185.699676 C132.236107,184.167634 131,182.653669 131,181.160793" id="Fill-9" fill="#FEFEFE"></path>
                <path d="M165,185.03382 L165,143.781569 C165,143.208225 165.255922,142.768461 165.766252,142.460776 C166.276582,142.154593 166.879286,142 167.574365,142 C168.267929,142 168.870633,142.154593 169.382477,142.460776 C169.891293,142.768461 170.147215,143.208225 170.147215,143.781569 L170.147215,164.10076 L186.567117,142.736942 C186.933586,142.246148 187.443916,142 188.098107,142 C188.752299,142 189.404976,142.288173 190.059167,142.858515 C190.711844,143.43336 191.03894,144.026216 191.03894,144.640084 C191.03894,145.04983 190.896593,145.417551 190.610384,145.744747 L178.111087,161.399139 L192.694105,183.4999 C192.89854,183.827096 193,184.134781 193,184.421453 C193,185.075846 192.683505,185.670202 192.050514,186.20002 C191.416009,186.73284 190.733045,187 189.998594,187 C189.180855,187 188.547864,186.651791 188.098107,185.955373 L174.681125,165.757755 L170.147215,171.46718 L170.147215,185.03382 C170.147215,185.608665 169.891293,186.058935 169.382477,186.384631 C168.870633,186.713328 168.267929,186.876926 167.574365,186.876926 C166.879286,186.876926 166.276582,186.713328 165.766252,186.384631 C165.255922,186.058935 165,185.608665 165,185.03382" id="Fill-11" fill="#FEFEFE"></path>
                <g id="Group-15" transform="translate(197.000000, 141.000000)">
                    <mask id="mask-2" fill="white">
                        <use xlink:href="#path-1"></use>
                    </mask>
                    <g id="Clip-14"></g>
                    <path d="M9.79905,31.1700452 L23.33955,31.1700452 L16.58955,8.30507742 L9.79905,31.1700452 Z M0.98655,43.4297871 C0.98655,43.3481742 1.02555,43.1879161 1.10805,42.9445613 L13.52805,2.59365806 C13.88505,1.41249677 14.91705,0.8234 16.62255,0.8234 C18.32805,0.8234 19.35855,1.41843226 19.71705,2.6070129 L32.18055,43.1048194 C32.18055,43.1804968 32.19105,43.2561742 32.21055,43.3318516 C32.23005,43.407529 32.24205,43.4639161 32.24205,43.5024968 C32.24205,44.0352065 31.90755,44.5085613 31.24005,44.9270129 C30.57255,45.3454645 29.85405,45.5532065 29.08455,45.5532065 C28.11405,45.5532065 27.50805,45.1718516 27.26505,44.4076581 L24.59355,35.4168839 L8.53605,35.4168839 L5.87505,44.3750129 C5.63655,45.1614645 5.02005,45.5532065 4.02705,45.5532065 C3.31305,45.5532065 2.62755,45.3528839 1.97055,44.9463032 C1.31505,44.5426903 0.98655,44.0366903 0.98655,43.4297871 Z" id="Fill-13" fill="#FEFEFE" mask="url(#mask-2)"></path>
                </g>
                <path d="M85.1126144,100 C84.1473469,100 83.20001,99.6382021 82.4768065,98.9656482 C60.8090912,78.768015 49.5830002,56.7058463 50.0118419,35.1646066 C50.2195388,24.7039921 53.8923369,15.8542041 60.6312787,9.57753511 C68.8539832,1.91522503 79.849964,-0.354644256 87.4002685,0.0581957266 C102.778803,0.916902891 110.623469,9.68262165 114.353048,16.16496 C118.081132,9.68262165 125.925798,0.916902891 141.304332,0.0581957266 C143.71003,-0.0769155405 145.949869,0.0236672917 147.959598,0.355440514 C149.341753,0.582127196 150.377249,1.75609398 150.437018,3.1627524 C150.486328,4.31570188 149.870708,5.36656729 148.899464,5.89800494 C148.150858,6.48048462 139.054034,13.9236142 141.426859,24.5358536 C142.145579,27.7605092 145.361146,30.192512 148.87705,32.6065 C156.717234,37.9824272 148.297292,52.7125578 140.086541,64.9416287 C128.207475,82.6336985 122.323228,85.5460969 118.931344,86.1991347 C116.964948,86.5774462 115.10763,86.2126458 113.558121,85.1512717 L112.935031,84.7219182 C108.343286,81.5543096 105.304038,79.7393149 101.771697,81.264571 C98.8684235,82.5181033 96.0936529,84.879548 93.2860095,88.4795126 C92.683838,89.2901802 89.4667777,94.4784529 88.8661004,97.0245497 C88.5508195,98.3561463 87.5422196,99.4340339 86.2317868,99.8333628 C85.8657023,99.9459555 85.4876641,100 85.1126144,100 Z M85.587777,5.95505192 C79.3553765,5.95505192 71.0026747,8.02525678 64.6567132,13.9386266 C59.0444148,19.1659314 56.1082683,26.3478458 55.9304559,35.2847055 C55.4582817,58.9862243 70.5648676,79.1343167 84.2519424,92.4607913 C85.8522544,88.8968563 88.3446169,85.1737903 88.6195538,84.8240022 C92.0547705,80.4103675 95.5930885,77.4589369 99.4347337,75.8000708 C106.217008,72.8711588 111.799422,76.7233312 116.286571,79.8203816 L116.897708,80.2407278 C117.014257,80.3202933 117.229425,80.470417 117.819643,80.3578242 C119.46777,80.0395621 124.459966,77.5790358 135.179516,61.6163903 C149.359684,40.4954967 145.579302,37.5455674 145.538958,37.5185451 C142.114201,35.1661079 136.941204,31.615684 135.650196,25.8389267 C133.798855,17.5551048 137.068213,10.6043807 140.56021,6.07214835 C123.594812,7.52684632 118.388942,20.3398982 117.183104,24.3016608 C116.802078,25.5506894 115.653021,26.4048928 114.351553,26.4048928 C113.050086,26.4048928 111.902523,25.5506894 111.521497,24.3001595 C110.293246,20.2588314 104.894621,6.9924062 87.0730338,5.99708653 C86.5933885,5.97006428 86.0973068,5.95505192 85.587777,5.95505192 Z M148.210627,6.17122994 C148.209133,6.17122994 148.209133,6.17122994 148.207639,6.17273118 C148.209133,6.17122994 148.209133,6.17122994 148.210627,6.17122994 Z M148.212121,6.16972871 C148.212121,6.17122994 148.212121,6.17122994 148.212121,6.17122994 L148.212121,6.16972871 Z" id="Fill-16" fill="#FEFEFE"></path>
                <path d="M112.93853,121 C111.529406,121 109.984445,120.710778 108.366341,119.924033 C105.161481,118.370025 98.5338228,114.186043 95.8424564,111.424195 C94.7005288,110.25232 94.7229196,108.373124 95.8887306,107.228224 C97.0560343,106.081824 98.9278998,106.102804 100.069827,107.274679 C102.141717,109.401137 108.129,113.216474 110.939783,114.578666 C112.384732,115.281491 113.902824,115.416361 116.615088,113.799414 C128.650855,106.615312 140.20149,97.1878642 150.019081,86.5360919 C160.774098,74.862301 173.50547,56.4150139 173.075568,34.8297399 C172.91734,26.9098445 170.109542,15.7515586 162.716121,10.3717243 C161.393575,9.40964805 161.09951,7.55293086 162.056341,6.22520572 C163.016157,4.89897916 164.864139,4.60376262 166.186685,5.56434028 C175.329569,12.216453 178.794162,24.982695 178.988215,34.7113536 C179.456928,58.2747282 165.853809,78.0917002 154.359898,90.5657227 C144.161664,101.632596 132.155752,111.430189 119.636345,118.902014 C118.609357,119.516425 116.123985,121 112.93853,121" id="Fill-18" fill="#FEFEFE"></path>
                <mask id="mask-4" fill="white">
                    <use xlink:href="#path-3"></use>
                </mask>
                <g id="Clip-20"></g>
                <text id="centar-srce" mask="url(#mask-4)" font-family="BarlowSemiCondensed-Regular, Barlow Semi Condensed" font-size="18" font-style="condensed" font-weight="500" letter-spacing="3.624327" fill="#FEFEFE">
                    <tspan x="52.753968" y="213">centar src</tspan>
                    <tspan x="159.701238" y="213" letter-spacing="4.066794">e</tspan>
                </text>
            </g>
        </g>
    </g>
</svg>